# xmcd
#
# Track frame offsets:
#	182
#	18127
#	27525
#	37825
#	49630
#	61657
#	73735
#	89207
#	100545
#	110397
#	126005
#	136735
#	148175
#	161150
#	180350
#	192137
#	204220
#	215477
#
# Disc length: 3033 seconds
#
# Revision: 1
# Processed by: cddbd v1.4PL0 Copyright (c) Steve Scherf et al.
# Submitted via: audiograbber 1.81.02
#
DISCID=f20bd712
DTITLE=Various Artist - Vandr do Colorada
DYEAR=1993
DGENRE=Country
TTITLE0=Je na zapad cesta dlouha
TTITLE1=Ponny express
TTITLE2=Zlatokop Tom
TTITLE3=Lakani
TTITLE4=Taborak vola
TTITLE5=Spona
TTITLE6=Quadalcanal
TTITLE7=Dal, dal, dal
TTITLE8=Buraky
TTITLE9=Bessy
TTITLE10=Je sobota, v kapse mam prachy
TTITLE11=Stado
TTITLE12=Ta stara pacificka
TTITLE13=Cajova ruze
TTITLE14=Rodne udoli
TTITLE15=Taborovy ohen
TTITLE16=Zradny banjo
TTITLE17=Uz jen chvili
EXTD=
EXTT0=
EXTT1=
EXTT2=
EXTT3=
EXTT4=
EXTT5=
EXTT6=
EXTT7=
EXTT8=
EXTT9=
EXTT10=
EXTT11=
EXTT12=
EXTT13=
EXTT14=
EXTT15=
EXTT16=
EXTT17=
PLAYORDER=
